<?xml version="1.0" encoding="UTF-8" standalone="no"?>
<svg width="16px" height="16px" viewBox="0 0 16 16" version="1.1" xmlns="http://www.w3.org/2000/svg" xmlns:xlink="http://www.w3.org/1999/xlink" xmlns:sketch="http://www.bohemiancoding.com/sketch/ns">
    <!-- Generator: Sketch 3.2 (9961) - http://www.bohemiancoding.com/sketch -->
    <title>code</title>
    <desc>Created with Sketch.</desc>
    <defs></defs>
    <g id="Page-1" stroke="none" stroke-width="1" fill="none" fill-rule="evenodd" sketch:type="MSPage">
        <g id="Group" sketch:type="MSLayerGroup" transform="translate(-144.000000, -8.000000)">
            <rect id="Rectangle-24" stroke="#979797" sketch:type="MSShapeGroup" x="136" y="0" width="32" height="32" rx="40"></rect>
            <path d="M157.784994,15.9766001 L154.099753,12.3165824 C153.904491,12.1226567 153.904491,11.8082411 154.099753,11.6143154 C154.295015,11.4203897 154.611598,11.4203897 154.80686,11.6143154 L158.77099,15.5513125 C158.800234,15.5700781 158.827937,15.5921813 158.853553,15.6176219 C159.048816,15.8115476 159.048816,16.1259632 158.853553,16.3198889 L154.822425,20.3234269 C154.627162,20.5173525 154.31058,20.5173525 154.115318,20.3234269 C153.920056,20.1295012 153.920056,19.8150855 154.115318,19.6211598 L157.784994,15.9766001 L157.784994,15.9766001 Z M145.060034,15.7933034 C144.957502,15.9827992 144.986306,16.2245417 145.146447,16.3846823 C145.191179,16.4294143 145.242278,16.4638988 145.296826,16.4881358 L149.19314,20.3844492 C149.388402,20.5797114 149.704985,20.5797114 149.900247,20.3844492 C150.095509,20.1891871 150.095509,19.8726046 149.900247,19.6773425 L146.23057,16.0076657 L149.884682,12.3535534 C150.079944,12.1582912 150.079944,11.8417088 149.884682,11.6464466 C149.68942,11.4511845 149.372838,11.4511845 149.177575,11.6464466 L145.244575,15.5794472 C145.215331,15.5983422 145.187627,15.6205976 145.162011,15.6462136 C145.11818,15.6900451 145.084187,15.7399899 145.060034,15.7933034 L145.060034,15.7933034 L145.060034,15.7933034 Z" id="Line" fill="#000000" sketch:type="MSShapeGroup"></path>
        </g>
    </g>
</svg>