<?xml version="1.0" encoding="UTF-8" standalone="no"?>
<svg width="16px" height="16px" viewBox="0 0 16 16" version="1.1" xmlns="http://www.w3.org/2000/svg" xmlns:xlink="http://www.w3.org/1999/xlink" xmlns:sketch="http://www.bohemiancoding.com/sketch/ns">
    <!-- Generator: Sketch 3.2 (9961) - http://www.bohemiancoding.com/sketch -->
    <title>camera</title>
    <desc>Created with Sketch.</desc>
    <defs></defs>
    <g id="Page-1" stroke="none" stroke-width="1" fill="none" fill-rule="evenodd" sketch:type="MSPage">
        <g id="Group" sketch:type="MSLayerGroup" transform="translate(-62.000000, -8.000000)">
            <rect id="Rectangle-23" stroke="#979797" sketch:type="MSShapeGroup" x="54" y="0" width="32" height="32" rx="40"></rect>
            <path d="M66.6,11 L63.9940603,11 C62.8945138,11 62,11.8918564 62,12.992017 L62,20.007983 C62,21.0998238 62.8927712,22 63.9940603,22 L76.0059397,22 C77.1054862,22 78,21.1081436 78,20.007983 L78,12.992017 C78,11.9001762 77.1072288,11 76.0059397,11 L73.4,11 L73.3923564,10.9617818 C73.1741867,9.87093353 72.1055038,9 71.0020869,9 L68.9979131,9 C67.8982606,9 66.8243361,9.87831961 66.6076436,10.9617818 L66.6,11 Z M67.4237976,12 L64.0068455,12 C63.4499488,12 63,12.446616 63,12.9975446 L63,20.0024554 C63,20.5536886 63.4507801,21 64.0068455,21 L75.9931545,21 C76.5500512,21 77,20.553384 77,20.0024554 L77,12.9975446 C77,12.4463114 76.5492199,12 75.9931545,12 L72.5741578,12 L72.3575338,10.9785101 C72.2440449,10.4433532 71.7032593,10 71.1521466,10 L68.8454731,10 C68.2918258,10 67.7547637,10.4380939 67.6402501,10.9785101 L67.4237976,12 Z M67,16 C67,14.3431458 68.3465171,13 70,13 C71.6568542,13 73,14.3465171 73,16 C73,17.6568542 71.6534829,19 70,19 C68.3431458,19 67,17.6534829 67,16 Z M68,16 C68,14.8954305 68.8877296,14 70,14 C71.1045695,14 72,14.8877296 72,16 C72,17.1045695 71.1122704,18 70,18 C68.8954305,18 68,17.1122704 68,16 Z" id="Rectangle-22" fill="#000000" sketch:type="MSShapeGroup"></path>
        </g>
    </g>
</svg>