<?xml version="1.0" encoding="UTF-8" standalone="no"?>
<svg width="16px" height="16px" viewBox="0 0 16 16" version="1.1" xmlns="http://www.w3.org/2000/svg" xmlns:xlink="http://www.w3.org/1999/xlink" xmlns:sketch="http://www.bohemiancoding.com/sketch/ns">
    <!-- Generator: Sketch 3.2 (9961) - http://www.bohemiancoding.com/sketch -->
    <title>more</title>
    <desc>Created with Sketch.</desc>
    <defs></defs>
    <g id="Page-1" stroke="none" stroke-width="1" fill="none" fill-rule="evenodd" sketch:type="MSPage">
        <g id="Group" sketch:type="MSLayerGroup" transform="translate(-8.000000, -8.000000)">
            <rect id="Rectangle-23" stroke="#979797" sketch:type="MSShapeGroup" x="0" y="0" width="32" height="32" rx="40"></rect>
            <path d="M16.5,16.5 L16.5,22.363961 C16.5,22.6401034 16.2761424,22.863961 16,22.863961 C15.7238576,22.863961 15.5,22.6401034 15.5,22.363961 L15.5,16.5 L9.63603897,16.5 C9.35989659,16.5 9.13603897,16.2761424 9.13603897,16 C9.13603897,15.7238576 9.35989659,15.5 9.63603897,15.5 L15.5,15.5 L15.5,9.63603897 C15.5,9.35989659 15.7238576,9.13603897 16,9.13603897 C16.2761424,9.13603897 16.5,9.35989659 16.5,9.63603897 L16.5,15.5 L22.363961,15.5 C22.6401034,15.5 22.863961,15.7238576 22.863961,16 C22.863961,16.2761424 22.6401034,16.5 22.363961,16.5 L16.5,16.5 L16.5,16.5 Z" id="Line" fill="#000000" sketch:type="MSShapeGroup"></path>
        </g>
    </g>
</svg>